:SAMPLES-PER-SECOND 30
:FULLY-SPECIFIED
:DEGREES
313
root  8.04847 39.7041 3.33908 -2.71294 82.0671 -1.99217
RightUpLeg  -20.977 -13.4275 -4.51958
RightLeg  34.1661 -4.41359 -3.47211
RightFoot  -3.80392 -0.358067 5.04686
RightToes  0.000482159 0.542163 -0.142577
Spine  11.7036 0.534123 -0.96543
Spine1  -1.19723 0.250715 0.232879
HEad  -6.37627 -8.23031 -1.7955
LeftShoulder1  3.41948 -5.89993 -30.2543
LeftArm  -15.0596 19.6232 -20.2136
LeftForeArm  13.4831 -11.5311 -3.69734
LeftHand  -0.25398 0.0180481 5.50724
RightShoulder  1.74538 2.47482 22.9562
RightArm  -23.2997 -21.9791 22.1747
RightForeArm  0.337157 12.5577 3.32472
RightHand  -1.14094 2.85058 -16.2559
LeftUpLeg  9.61953 5.83532 -0.973997
LeftLeg  8.73627 18.3993 -2.77456
LeftFoot  -17.6816 0.0606826 -0.815255
LeftToes  1.06248e-005 4.65855e-005 -8.18498e-006
314
root  8.63553 39.6016 3.46764 -4.37805 81.9081 -3.58406
RightUpLeg  -21.7906 -15.4216 -2.94083
RightLeg  26.6361 -4.28299 -2.59905
RightFoot  -3.89267 -0.405459 5.80466
RightToes  0.000482159 0.542163 -0.142577
Spine  12.3511 0.141905 -1.89665
Spine1  -1.3098 -0.388866 1.23286
HEad  -7.27326 -7.43563 -1.7616
LeftShoulder1  4.10682 -7.05627 -32.8075
LeftArm  -13.987 15.9105 -21.9259
LeftForeArm  15.405 -12.6373 -4.17653
LeftHand  -0.25398 0.0180481 5.50724
RightShoulder  1.86167 2.79715 23.3282
RightArm  -24.1415 -22.4136 26.1258
RightForeArm  0.897382 12.6757 3.28032
RightHand  -1.16604 2.84862 -16.6061
LeftUpLeg  10.7664 6.11451 -0.47514
LeftLeg  8.72007 18.1039 -2.78166
LeftFoot  -18.3365 0.0240103 -1.40325
LeftToes  1.06248e-005 4.65855e-005 -8.18498e-006
315
root  9.31219 39.4695 3.63822 -4.0975 81.7659 -3.46594
RightUpLeg  -22.6452 -17.7787 -1.23148
RightLeg  19.0961 -3.70618 -1.48139
RightFoot  -2.87643 -0.483631 6.27355
RightToes  0.000482159 0.542163 -0.142577
Spine  12.7189 -0.300824 -3.06469
Spine1  -1.43007 -1.08911 2.17253
HEad  -7.94427 -6.3091 -1.74175
LeftShoulder1  4.89678 -8.24897 -35.5623
LeftArm  -11.6382 12.2791 -23.2604
LeftForeArm  17.3978 -14.3835 -4.58074
LeftHand  -0.25398 0.0180481 5.50724
RightShoulder  2.01105 3.17409 23.93
RightArm  -24.7116 -22.8984 30.2475
RightForeArm  1.4648 12.5386 3.25754
RightHand  -1.19761 2.90373 -16.9371
LeftUpLeg  11.8039 6.29612 -0.171749
LeftLeg  8.69543 17.725 -2.86229
LeftFoot  -18.9387 -0.0193976 -2.00674
LeftToes  1.06248e-005 4.65855e-005 -8.18498e-006
316
root  10.0761 39.3148 3.84657 -2.82867 81.6779 -2.3094
RightUpLeg  -23.1381 -17.669 -0.762749
RightLeg  12.8398 -5.04704 0.248524
RightFoot  -1.15057 -0.543198 5.9978
RightToes  0.000482159 0.542163 -0.142577
Spine  13.1004 -0.770045 -4.30767
Spine1  -1.46235 -1.83211 3.02819
HEad  -8.44941 -4.87928 -1.87192
LeftShoulder1  5.69837 -9.29942 -38.3266
LeftArm  -8.07004 8.3836 -24.4825
LeftForeArm  19.0057 -16.2469 -4.77507
LeftHand  -0.25398 0.0180481 5.50724
RightShoulder  2.17603 3.52382 24.8247
RightArm  -24.9421 -23.2373 34.3448
RightForeArm  2.66193 11.955 3.20838
RightHand  -1.17746 2.83671 -16.7867
LeftUpLeg  13.0277 6.42176 0.036563
LeftLeg  8.71398 17.3573 -2.91696
LeftFoot  -19.3032 -0.0598469 -2.52477
LeftToes  1.06248e-005 4.65855e-005 -8.18498e-006
317
root  10.9306 39.1197 4.09423 -1.85568 81.7287 -1.11827
RightUpLeg  -22.9048 -13.4892 -2.31834
RightLeg  8.82901 -9.05149 2.42564
RightFoot  -0.026132 -0.581732 5.86021
RightToes  0.000482159 0.542163 -0.142577
Spine  13.6956 -1.26952 -5.50697
Spine1  -1.23767 -2.64422 3.85408
HEad  -8.97379 -3.09218 -2.32383
LeftShoulder1  6.39983 -10.0682 -40.8464
LeftArm  -3.8285 4.06775 -25.9363
LeftForeArm  19.8278 -17.7859 -4.79738
LeftHand  -0.25398 0.0180481 5.50724
RightShoulder  2.36271 3.86726 25.9619
RightArm  -24.8072 -23.2801 38.1856
RightForeArm  4.61547 10.9124 3.13299
RightHand  -1.06537 2.38013 -16.0755
LeftUpLeg  14.6458 6.64546 0.449886
LeftLeg  9.05582 16.5572 -2.89932
LeftFoot  -19.8427 -0.161883 -3.76156
LeftToes  1.06248e-005 4.65855e-005 -8.18498e-006
318
root  11.8852 38.9022 4.38731 -2.31975 82.1225 -1.17151
RightUpLeg  -22.953 -11.8018 -2.41338
RightLeg  7.6424 -8.99927 3.24886
RightFoot  0.337545 -0.567198 5.55602
RightToes  0.000482159 0.542163 -0.142577
Spine  14.3347 -1.8779 -6.51518
Spine1  -0.799147 -3.62021 4.82769
HEad  -9.3635 -0.738293 -3.17686
LeftShoulder1  6.91804 -10.5509 -42.7762
LeftArm  0.765866 -0.333689 -27.9715
LeftForeArm  19.8243 -18.6888 -4.85011
LeftHand  -0.25398 0.0180481 5.50724
RightShoulder  2.62809 4.39644 27.2194
RightArm  -24.1148 -23.3212 41.5419
RightForeArm  6.88689 9.65524 3.14086
RightHand  -0.904662 1.60811 -15.143
LeftUpLeg  16.4718 7.19144 1.41798
LeftLeg  9.8102 14.7233 -2.79729
LeftFoot  -20.6086 -0.349559 -5.83184
LeftToes  1.06248e-005 4.65855e-005 -8.18498e-006
319
root  12.9626 38.7187 4.72939 -5.58833 82.8733 -4.17474
RightUpLeg  -23.2568 -12.2445 -1.05274
RightLeg  9.10394 -6.75593 2.84883
RightFoot  1.29891 -0.398224 3.71115
RightToes  0.000482159 0.542163 -0.142577
Spine  14.607 -2.59193 -6.98964
Spine1  -0.255226 -4.69488 5.9282
HEad  -9.4266 2.30068 -4.45204
LeftShoulder1  7.24284 -10.8366 -43.9573
LeftArm  5.68188 -4.36582 -30.81
LeftForeArm  20.0499 -18.9196 -5.04527
LeftHand  -0.25398 0.0180481 5.50724
RightShoulder  2.96895 5.15027 28.3006
RightArm  -22.7559 -23.9042 44.426
RightForeArm  9.8011 8.70596 3.32754
RightHand  -0.723941 0.660762 -13.9573
LeftUpLeg  18.1547 8.40372 3.16992
LeftLeg  10.9459 11.8061 -2.3898
LeftFoot  -20.8152 -0.508952 -7.64328
LeftToes  1.06248e-005 4.65855e-005 -8.18498e-006
320
root  14.1911 38.5862 5.10847 -12.9792 83.4255 -11.4199
RightUpLeg  -23.7939 -14.2067 1.56806
RightLeg  12.4688 -3.48794 1.60287
RightFoot  3.39263 -0.0491551 0.578296
RightToes  0.000482159 0.542163 -0.142577
Spine  14.4116 -3.2147 -6.43055
Spine1  0.352509 -5.48754 6.69045
HEad  -9.38069 5.97893 -6.19649
LeftShoulder1  7.44 -11.006 -44.6592
LeftArm  10.5852 -7.74712 -34.3295
LeftForeArm  21.9155 -18.9243 -5.21639
LeftHand  -0.25398 0.0180481 5.50724
RightShoulder  3.29489 5.89913 29.057
RightArm  -20.9903 -25.0918 46.7139
RightForeArm  14.7268 8.52457 3.59893
RightHand  -0.488577 -0.601904 -11.6999
LeftUpLeg  19.764 10.298 5.66992
LeftLeg  12.4425 8.32875 -1.48621
LeftFoot  -20.0179 -0.586964 -9.3008
LeftToes  1.06248e-005 4.65855e-005 -8.18498e-006
321
root  15.5431 38.4695 5.49368 -22.3136 83.1293 -20.3696
RightUpLeg  -24.1024 -15.9271 4.33194
RightLeg  16.8278 -0.645692 0.130155
RightFoot  4.85736 0.338656 -2.17065
RightToes  0.000482159 0.542163 -0.142577
Spine  14.2175 -3.56322 -4.74825
Spine1  0.977503 -5.68801 6.75281
HEad  -9.56769 10.319 -8.44621
LeftShoulder1  7.56989 -11.0779 -45.2382
LeftArm  15.1944 -10.2104 -38.1071
LeftForeArm  25.0997 -19.475 -4.98848
LeftHand  -0.25398 0.0180481 5.50724
RightShoulder  3.56377 6.46799 29.7684
RightArm  -19.2979 -26.2133 47.8516
RightForeArm  21.4516 8.88497 3.74185
RightHand  -0.256653 -1.93488 -8.23295
LeftUpLeg  21.4951 12.5381 8.61689
LeftLeg  14.5517 4.67276 -0.217629
LeftFoot  -18.5821 -0.686923 -12.6149
LeftToes  1.06248e-005 4.65855e-005 -8.18498e-006
322
root  16.9072 38.3672 5.8581 -29.2215 82.2068 -26.6198
RightUpLeg  -23.4627 -15.13 5.46319
RightLeg  21.1002 -0.824527 -0.639944
RightFoot  3.8142 0.535363 -3.84021
RightToes  0.000482159 0.542163 -0.142577
Spine  14.4607 -3.73789 -2.5724
Spine1  1.59418 -5.49353 6.42391
HEad  -9.97383 15.3115 -11.102
LeftShoulder1  7.62487 -11.0675 -45.6124
LeftArm  19.8365 -11.6173 -41.7253
LeftForeArm  27.7033 -20.9833 -4.25225
LeftHand  -0.25398 0.0180481 5.50724
RightShoulder  3.81436 6.91198 30.6649
RightArm  -18.0991 -26.5041 47.5801
RightForeArm  26.4101 8.95847 3.73095
RightHand  -0.138326 -2.73192 -5.38582
LeftUpLeg  22.1782 13.5446 10.9221
LeftLeg  18.7196 2.77944 1.35798
LeftFoot  -15.9779 -0.594025 -17.3146
LeftToes  1.06248e-005 4.65855e-005 -8.18498e-006
323
root  18.1725 38.3122 6.19621 -34.3653 81.4892 -31.2993
RightUpLeg  -22.3283 -14.926 6.11402
RightLeg  24.3323 -1.14043 -0.78434
RightFoot  0.846445 0.510623 -4.71385
RightToes  0.000482159 0.542163 -0.142577
Spine  14.9007 -3.95861 -0.509449
Spine1  2.27333 -5.30851 6.16651
HEad  -10.3362 20.4581 -13.8348
LeftShoulder1  7.5789 -11.0488 -45.3873
LeftArm  24.4402 -12.3843 -44.9645
LeftForeArm  29.2843 -23.0537 -3.61209
LeftHand  -0.25398 0.0180481 5.50724
RightShoulder  4.05523 7.33506 31.4681
RightArm  -17.6238 -25.8165 46.5192
RightForeArm  26.4052 8.41585 3.73086
RightHand  -0.11514 -3.1061 -4.85717
LeftUpLeg  19.4223 10.7056 11.064
LeftLeg  27.1248 5.7885 3.63546
LeftFoot  -9.95871 0.263386 -18.9288
LeftToes  1.06248e-005 4.65855e-005 -8.18498e-006
